<svg id="Layer_1" data-name="Layer 1" xmlns="http://www.w3.org/2000/svg" xmlns:xlink="http://www.w3.org/1999/xlink" viewBox="0 0 147.19 98.94"><defs><style>.cls-1{fill:url(#Degradado_sin_nombre_142);}.cls-2{fill:url(#Degradado_sin_nombre_142-2);}.cls-3{fill:url(#Degradado_sin_nombre_141);}.cls-4{fill:url(#Degradado_sin_nombre_12);}.cls-5{font-size:10.69px;fill:#d87b00;font-family:Metropolis-Regular, Metropolis Regular;letter-spacing:0.01em;}.cls-6{letter-spacing:0.02em;}.cls-7{letter-spacing:0em;}.cls-8{letter-spacing:0.06em;}.cls-9{letter-spacing:0.04em;}</style><linearGradient id="Degradado_sin_nombre_142" x1="63.22" y1="97.32" x2="114.17" y2="46.37" gradientUnits="userSpaceOnUse"><stop offset="0" stop-color="#d87b00"/><stop offset="0.2" stop-color="#ffd268"/><stop offset="0.24" stop-color="#fecf62"/><stop offset="0.29" stop-color="#fcc652"/><stop offset="0.34" stop-color="#f9b838"/><stop offset="0.39" stop-color="#f5a413"/><stop offset="0.42" stop-color="#f39900"/><stop offset="0.57" stop-color="#f39900"/><stop offset="0.72" stop-color="#fbbd42"/><stop offset="0.8" stop-color="#ffd268"/><stop offset="0.83" stop-color="#fdcd62"/><stop offset="0.88" stop-color="#f7c052"/><stop offset="0.92" stop-color="#edaa38"/><stop offset="0.98" stop-color="#df8b13"/><stop offset="1" stop-color="#d87b00"/></linearGradient><linearGradient id="Degradado_sin_nombre_142-2" x1="90.1" y1="36.25" x2="90.1" y2="102.53" xlink:href="#Degradado_sin_nombre_142"/><linearGradient id="Degradado_sin_nombre_141" x1="90.1" y1="42.67" x2="90.1" y2="105.25" gradientUnits="userSpaceOnUse"><stop offset="0" stop-color="#ffd268"/><stop offset="0.17" stop-color="#fdcd62"/><stop offset="0.38" stop-color="#f7c052"/><stop offset="0.62" stop-color="#edaa38"/><stop offset="0.88" stop-color="#df8b13"/><stop offset="1" stop-color="#d87b00"/></linearGradient><linearGradient id="Degradado_sin_nombre_12" x1="90.21" y1="102.35" x2="90.21" y2="118.72" gradientUnits="userSpaceOnUse"><stop offset="0" stop-color="#ffd268"/><stop offset="0.17" stop-color="#fdce63"/><stop offset="0.38" stop-color="#f7c154"/><stop offset="0.61" stop-color="#eeac3b"/><stop offset="0.85" stop-color="#e18f18"/><stop offset="1" stop-color="#d87b00"/></linearGradient></defs><title>Untitled-1</title><path class="cls-1" d="M115.37,60.21V45.28H100.65L90.1,35.06,79.55,45.28H64.83V60.21L54.29,70.58,64.83,80.77V95.61H79.56L90.1,105.74l10.54-10.13h14.73V80.77l10.54-10.19Zm-2.18,19.64V93.43H99.77l-9.67,9.29-9.66-9.29H67V79.85l-9.6-9.29L67,61.12V47.46H80.44l9.66-9.37,9.67,9.37h13.42V61.12l9.6,9.44Z" transform="translate(-16.61 -35.06)"/><path class="cls-2" d="M113.19,61.12V47.46H99.77L90.1,38.09l-9.66,9.37H67V61.12l-9.6,9.44L67,79.85V93.43H80.44l9.66,9.29,9.67-9.29h13.42V79.85l9.6-9.29Zm-1.27,18.21V92.16H99.23l-9.13,8.78L81,92.16H68.28V79.33l-9.07-8.78,9.07-8.92V48.72H81l9.13-8.85,9.13,8.85h12.69V61.63L121,70.55Z" transform="translate(-16.61 -35.06)"/><path class="cls-3" d="M106.22,74V72.53h-3.07s.11-1.86-3.17-1.86v-2h-3.6s-.22-3.39-2.12-4c-1.48-.49-3.22-1-3.88-1.62a.93.93,0,0,0,.65-.89.92.92,0,0,0-.77-.91l0-.68a.57.57,0,0,0,.44-.55.58.58,0,0,0-.49-.57l0-.6a.37.37,0,0,0,.29-.35.34.34,0,0,0-.32-.35l0-.59h0a4.25,4.25,0,0,0,4.2-3.64,3.42,3.42,0,1,1-3.62-4.83,5.65,5.65,0,0,0-.58,0,4.26,4.26,0,0,0,0,8.51l0,.59a.34.34,0,0,0-.33.35.37.37,0,0,0,.3.35l0,.6a.58.58,0,0,0-.49.57.57.57,0,0,0,.45.55l0,.68a.92.92,0,0,0-.77.91.94.94,0,0,0,.65.89c-.66.64-2.4,1.13-3.88,1.62-1.9.64-2.11,4-2.11,4h-3.6v2c-3.28,0-3.18,1.86-3.18,1.86H74V74c-4.55,0-5.7,5.33-5.7,5.33h0V92.16H81l9.13,8.78,9.13-8.78h12.68V79.34h0C111.89,79.21,110.72,74,106.22,74Z" transform="translate(-16.61 -35.06)"/><path class="cls-4" d="M18.31,106.68v5.52h6.38v-5.52h1.72v13.19H24.69v-6.19H18.31v6.19h-1.7V106.68Z" transform="translate(-16.61 -35.06)"/><path class="cls-4" d="M34.41,119.87l-.14-1.2h-.06a3.51,3.51,0,0,1-2.9,1.41,2.7,2.7,0,0,1-2.89-2.72c0-2.29,2-3.54,5.69-3.52v-.19A2,2,0,0,0,32,111.46a4.69,4.69,0,0,0-2.46.7L29.1,111a6,6,0,0,1,3.11-.84c2.9,0,3.6,2,3.6,3.88v3.54a13.1,13.1,0,0,0,.16,2.27ZM34.15,115c-1.88,0-4,.29-4,2.13a1.52,1.52,0,0,0,1.63,1.64,2.34,2.34,0,0,0,2.28-1.58,1.83,1.83,0,0,0,.1-.55Z" transform="translate(-16.61 -35.06)"/><path class="cls-4" d="M37.43,118.87l4.28-5.58c.41-.5.81-1,1.24-1.46v0H37.82V110.4H45l0,1.07L40.79,117c-.39.53-.78,1-1.21,1.49v0h5.54v1.37H37.43Z" transform="translate(-16.61 -35.06)"/><path class="cls-4" d="M46.68,113.35c0-1.11,0-2.07-.08-2.95h1.51l.06,1.86h.08a2.84,2.84,0,0,1,2.62-2.08,1.88,1.88,0,0,1,.49.06v1.63a2.61,2.61,0,0,0-.59-.06A2.42,2.42,0,0,0,48.46,114a4.7,4.7,0,0,0-.08.8v5.05h-1.7Z" transform="translate(-16.61 -35.06)"/><path class="cls-4" d="M58.18,119.87l-.14-1.2H58a3.5,3.5,0,0,1-2.89,1.41,2.7,2.7,0,0,1-2.9-2.72c0-2.29,2-3.54,5.69-3.52v-.19a2,2,0,0,0-2.15-2.19,4.69,4.69,0,0,0-2.46.7L52.88,111a5.93,5.93,0,0,1,3.11-.84c2.89,0,3.6,2,3.6,3.88v3.54a13.16,13.16,0,0,0,.15,2.27ZM57.92,115c-1.88,0-4,.29-4,2.13a1.53,1.53,0,0,0,1.63,1.64,2.34,2.34,0,0,0,2.28-1.58,1.83,1.83,0,0,0,.1-.55Z" transform="translate(-16.61 -35.06)"/><path class="cls-4" d="M64.1,107.68v2.72h2.47v1.31H64.1v5.1c0,1.18.33,1.84,1.29,1.84a4.32,4.32,0,0,0,1-.11l.08,1.29a4.39,4.39,0,0,1-1.53.23,2.4,2.4,0,0,1-1.86-.72,3.56,3.56,0,0,1-.66-2.47v-5.16H61V110.4h1.47v-2.27Z" transform="translate(-16.61 -35.06)"/><path class="cls-4" d="M79.47,114.08c-.1-1.84-.22-4-.2-5.7h-.06c-.45,1.55-1,3.19-1.66,5l-2.33,6.4H73.93l-2.13-6.28c-.63-1.86-1.15-3.56-1.53-5.13h0c0,1.65-.13,3.86-.25,5.83l-.35,5.66H68l.92-13.19h2.17l2.25,6.38c.55,1.62,1,3.07,1.33,4.44h.06c.34-1.33.81-2.78,1.39-4.44l2.35-6.38h2.17l.82,13.19H79.8Z" transform="translate(-16.61 -35.06)"/><path class="cls-4" d="M91.74,117.28c0,1,0,1.84.08,2.59H90.29l-.1-1.55h0A3.57,3.57,0,0,1,87,120.08c-1.49,0-3.27-.82-3.27-4.15V110.4h1.72v5.24c0,1.8.55,3,2.11,3A2.43,2.43,0,0,0,90,116.21V110.4h1.72Z" transform="translate(-16.61 -35.06)"/><path class="cls-4" d="M94.35,106h1.72v5.9h0a3.25,3.25,0,0,1,1.23-1.21,3.6,3.6,0,0,1,1.76-.49c1.27,0,3.31.79,3.31,4v5.64h-1.72v-5.44c0-1.53-.57-2.82-2.19-2.82a2.46,2.46,0,0,0-2.31,1.72,2.06,2.06,0,0,0-.12.82v5.72H94.35Z" transform="translate(-16.61 -35.06)"/><path class="cls-4" d="M110.2,119.87l-.14-1.2H110a3.49,3.49,0,0,1-2.89,1.41,2.7,2.7,0,0,1-2.9-2.72c0-2.29,2-3.54,5.7-3.52v-.19a2,2,0,0,0-2.15-2.19,4.75,4.75,0,0,0-2.47.7L104.9,111a6,6,0,0,1,3.11-.84c2.9,0,3.6,2,3.6,3.88v3.54a13.1,13.1,0,0,0,.16,2.27ZM110,115c-1.88,0-4,.29-4,2.13a1.52,1.52,0,0,0,1.62,1.64,2.36,2.36,0,0,0,2.29-1.58,1.83,1.83,0,0,0,.1-.55Z" transform="translate(-16.61 -35.06)"/><path class="cls-4" d="M114.13,113c0-1,0-1.78-.08-2.56h1.51l.08,1.52h.06a3.26,3.26,0,0,1,3-1.74,2.81,2.81,0,0,1,2.68,1.9h0a3.7,3.7,0,0,1,1.06-1.23,3.21,3.21,0,0,1,2.09-.67c1.25,0,3.11.82,3.11,4.11v5.58H126v-5.36c0-1.82-.67-2.92-2.06-2.92a2.22,2.22,0,0,0-2,1.57,2.71,2.71,0,0,0-.14.86v5.85h-1.68v-5.68c0-1.5-.67-2.6-2-2.6a2.58,2.58,0,0,0-2.27,2.56v5.72h-1.68Z" transform="translate(-16.61 -35.06)"/><path class="cls-4" d="M130.19,113c0-1,0-1.78-.08-2.56h1.51l.08,1.52h.06a3.24,3.24,0,0,1,3-1.74,2.81,2.81,0,0,1,2.68,1.9h0a3.79,3.79,0,0,1,1.05-1.23,3.26,3.26,0,0,1,2.1-.67c1.25,0,3.11.82,3.11,4.11v5.58H142v-5.36c0-1.82-.67-2.92-2.06-2.92a2.22,2.22,0,0,0-2,1.57,2.71,2.71,0,0,0-.14.86v5.85h-1.68v-5.68c0-1.5-.67-2.6-2-2.6a2.58,2.58,0,0,0-2.27,2.56v5.72h-1.68Z" transform="translate(-16.61 -35.06)"/><path class="cls-4" d="M151.51,119.87l-.13-1.2h-.06a3.52,3.52,0,0,1-2.9,1.41,2.7,2.7,0,0,1-2.89-2.72c0-2.29,2-3.54,5.69-3.52v-.19a2,2,0,0,0-2.15-2.19,4.75,4.75,0,0,0-2.47.7l-.39-1.14a6,6,0,0,1,3.11-.84c2.9,0,3.6,2,3.6,3.88v3.54a13.1,13.1,0,0,0,.16,2.27Zm-.25-4.83c-1.88,0-4,.29-4,2.13a1.52,1.52,0,0,0,1.62,1.64,2.35,2.35,0,0,0,2.29-1.58,1.83,1.83,0,0,0,.1-.55Z" transform="translate(-16.61 -35.06)"/><path class="cls-4" d="M163.72,106v11.44c0,.84,0,1.8.08,2.45h-1.54l-.08-1.65h0a3.5,3.5,0,0,1-3.23,1.86c-2.29,0-4-1.94-4-4.81,0-3.15,1.94-5.09,4.25-5.09a3.16,3.16,0,0,1,2.85,1.45h0V106ZM162,114.25a2.94,2.94,0,0,0-.08-.72,2.52,2.52,0,0,0-2.48-2c-1.78,0-2.84,1.57-2.84,3.66,0,1.92.94,3.5,2.8,3.5a2.57,2.57,0,0,0,2.52-2,3,3,0,0,0,.08-.75Z" transform="translate(-16.61 -35.06)"/><text class="cls-5" transform="translate(59.43 96.27)">(<tspan class="cls-6" x="3.16" y="0">S</tspan><tspan class="cls-7" x="8.69" y="0">A</tspan><tspan class="cls-8" x="15.24" y="0">W</tspan><tspan class="cls-9" x="24.94" y="0">)</tspan></text></svg>